<?xml version="1.0" encoding="UTF-8"?>
<svg width="65.304" height="65.304" version="1.1" viewBox="0 0 334.36 334.36" xml:space="preserve" xmlns="http://www.w3.org/2000/svg"><defs><clipPath id="clipPath28"><path transform="translate(-751.47 -113.99)" d="m0 800h800v-800h-800z"/></clipPath><clipPath id="clipPath30"><path transform="translate(-49.138 -90.71)" d="m0 800h800v-800h-800z"/></clipPath><clipPath id="clipPath32"><path transform="translate(-49.138 -96.593)" d="m0 800h800v-800h-800z"/></clipPath><clipPath id="clipPath34"><path transform="translate(-751.47 -77.654)" d="m0 800h800v-800h-800z"/></clipPath></defs><g transform="translate(4.229 77.012)" font-family="none" font-size="none" font-weight="none" stroke-miterlimit="10" text-anchor="none" style="mix-blend-mode:normal"><g transform="scale(5.12)"><path d="m55.909 30.23 6.4108-2.1474s1.4243-0.09715 0.23382 1.4293l-8.0088 4.0229 1.3642-3.3048" fill="#b2671b"/><g transform="matrix(1.2771 0 0 1 -.74399 .25)"><path d="m34.26-4.2432c-6e-3 0.37461-0.3038 0.68911-0.68499 0.70887l-17.953 0.9114c-0.396 0.01976-0.73685-0.28816-0.75744-0.68499 0-0.01565-8e-4 -0.03211 0-0.04776 6e-3 -0.37625 0.30381-0.68993 0.685-0.70969l14.629-0.74263 3.3229-0.16796c0.39684-0.02058 0.73769 0.28734 0.75827 0.68417 0 0.01565 8.1e-4 0.03211 0 0.04858" fill="#a94b01"/><path d="m30.179-4.808c-0.95668 0.51128-2.3637 1.0802-4.133 1.2407-2.134 0.19266-3.9058-0.28981-5.093-0.77226l9.226-0.46846" fill="#b2671b"/></g><g fill="#a94b01"><path d="m31.198 36.968-2.1233-48.299s0.53433-1.4852 1.5618 0.02017l2.8816 48.24-2.3201 0.03839"/><path d="m52.316 34.031-5.6067-48.127s0.20582-1.5157 0.9855-0.0741l6.0785 48.022-1.4573 0.17866"/><path d="m11.803 3.088-0.52197-13.841c-0.59443-1.3008-0.90894-0.01564-0.90894-0.01564l0.3779 13.921c0.29063-0.20088 0.69899-0.20665 1.053-0.06504"/><path d="m50.862-7.8983-6.1411 0.65864c-0.18278 0.01976-0.34909-0.11444-0.36885-0.29639l-0.0214-0.20418c-0.0198-0.18278 0.11444-0.34744 0.29639-0.3672l1.2992-0.13914 3.816-0.40919 1.0267-0.11032c0.18277-0.01976 0.34826 0.11362 0.3672 0.29639l0.0222 0.20418c0.0198 0.18195-0.11444 0.34744-0.29639 0.3672"/></g><g transform="matrix(1.1997 0 0 1.2705 .72077 -6.1414)"><path d="m35.808 22.395s-4.343-3.7469-18.062 1.2292c-0.41083 0.14902-0.82908 0.30545-1.2564 0.47011 0.0502-0.0988 5.2124-10.286-0.69076-21.452 0 0 0.7418 0.24617 1.9521 0.52692 3.3023 0.7665 10.1 1.7849 14.897-1.2597 0 0 8.8415 3.9099 3.1599 20.486" fill="#3d3737"/><path d="m16.49 24.094c0.0321-0.06339 2.1365-4.2153 2.1373-10.107 8e-4 -3.2183-0.62572-6.9545-2.5613-10.827-0.0856-0.1729-0.17455-0.34579-0.26676-0.51868 0 0 0.7418 0.24617 1.9521 0.52692 2.2913 1.9076 2.9903 4.7768 3.3632 6.3065 1.3074 5.3639-1.3527 10.92-3.3682 14.149-0.41083 0.14902-0.82908 0.30545-1.2564 0.47011" fill="#332e2e"/></g><path d="m39.809 23.963-12.892 1.0711c1.4433-0.57138 3.2652-1.1189 5.4067-1.3897 3.0092-0.38119 5.596-0.08398 7.4855 0.31862" fill="#b2671b"/><path d="m43.966 22.965c-6e-3 0.36555-0.28981 0.67676-0.66194 0.70722l-3.4941 0.29063-12.892 1.0711-4.8699 0.40424c-0.39519 0.03211-0.74592-0.26428-0.77886-0.65947-2e-3 -0.02387-3e-3 -0.04775-2e-3 -0.07163 6e-3 -0.36555 0.29063-0.67676 0.66194-0.70804l21.256-1.7652c0.39519-0.03293 0.74592 0.26428 0.77886 0.66029 2e-3 0.02306 3e-3 0.04776 2e-3 0.07081" fill="#a94b01"/><g transform="matrix(.052009 0 0 .052849 -37.121 -67.15)"><path d="m1177.2 1659.6c-3.6533-24.147-4.7026-30.307-6.8426-49.347-1.0987-9.84-2.18-19.707-3.212-29.627-18.133-16.293-38.667-39.44-55.024-70.88-7.0507-13.56-12.379-26.827-16.388-39.4-0.063 2.4533-0.095 4.92-0.096 7.3866 0-2.4666 0.033-4.9333 0.096-7.3866 0.472-18.733 2.7706-37.4 7.6253-55.44 10.127-37.587 35.825-73.187 67.876-95.493-18.08 85.653-13.075 174.57-4.0893 261.21 1.032 9.92 2.1133 19.787 3.212 29.627 2.14 19.04 3.1893 25.2 6.8426 49.347" fill="#d1e3ef"/><path d="m1177.2 1659.6c-3.724-0.5467-7.4306-0.8267-11.091-0.8267-1.8587 0-3.704 0.08-5.5334 0.2134-7.152-8.2667-13.792-16.973-19.904-26.027-21.68-32.133-36.523-68.88-41.671-107.4-2.096-15.667-3.3734-31.733-3.364-47.827 0-2.4666 0.033-4.9333 0.096-7.3866 4.0093 12.573 9.3373 25.84 16.388 39.4 16.357 31.44 36.891 54.587 55.024 70.88 1.032 9.92 2.1133 19.787 3.212 29.627 2.14 19.04 3.1893 25.2 6.8426 49.347" fill="#bad3e7"/><path d="m1167.4 1673.6 14.22 1.3467s11.355 59.053 23.424 90.613c0 0-5.644 12.547-15.665 4.0533 0 0-23.543-64.933-21.979-96.013" fill="#d18b00"/><path d="m1187.4 1661.8c0.696 0.8533 2.2786 3.0533 2.4693 6.2267 0.3173 5.3066-3.552 8.76-4.0573 9.2-3.4054-0.4134-8.192-0.8134-13.911-0.6934-12.211 0.24-28.564 0.56-39.92 9.8934-12.543 10.293-17.26 30.173-13.047 44.133 7.1347 23.627 43.052 40.867 86.597 31.24 0.7146 0.4 2.1333 1.3467 2.9466 3.0933 1.1614 2.5067 0.616 5.64-1.3453 8.08-6.5027 3.4534-18.039 8.4667-32.875 8.92-22.773 0.7067-56.193-9.2666-68.423-38.947-0.568-1.3734-11.621-29.52 4.5946-55.24 14.935-23.693 46.372-34.813 76.969-25.907" fill="#ffbf3e"/></g><g><path d="m45.549 7.943c-0.0362-0.10538-0.056-0.16137-0.056-0.16137 0.14161 0.0387 0.27993 0.07492 0.41742 0.10868l-0.36143 0.05269" fill="#5b361a"/><path d="m52.442 5.7613c-0.67923 0.41001-1.631 0.83813-2.8248 1.0011-1.1477 0.15561-2.1398 0.01482-2.8766-0.17783l5.7014-0.82331" fill="#b2671b"/><path d="m54.569 6.6405-9.7348 1.4054c-0.26511 0.03787-0.51375-0.14737-0.55162-0.41248l-0.0288-0.19759c-0.0387-0.2651 0.14738-0.51374 0.41248-0.55162l2.0747-0.29969 5.7014-0.82331 1.9586-0.28322c0.26592-0.03869 0.51374 0.14737 0.55161 0.41248l0.0296 0.19842c0.0379 0.2651-0.14819 0.51292-0.4133 0.55162" fill="#a94b01"/><path d="m58.555 20.888c-1.9751-0.55902-3.8844-0.50222-5.5878-0.15067-3.872 0.79614-6.6721 3.1129-6.7248 3.1566 3.0174-5.7162-0.75004-16.112-0.75004-16.112 1.5544 0.42648 2.8511 0.5442 3.9206 0.48081 3.1813-0.18689 4.3545-1.9685 4.3545-1.9685 7.9062 6.635 4.7876 14.594 4.7876 14.594" fill="#3d3737"/><path d="m46.471 23.425c0.68993-1.5445 0.94269-3.3772 0.94269-5.2338-8.1e-4 -4.5875-1.5478-9.3256-1.8648-10.248l0.36143-0.05269c1.1222 0.27663 2.1027 0.38778 2.9549 0.38778 0.18936 0 0.37213-0.0049 0.54832-0.01564 1.0086 0.84389 2.055 1.9875 2.833 3.5089 1.3626 2.6659 1.5618 5.8299 0.72121 8.9658-0.28239 0.05764-0.55902 0.12432-0.82906 0.19677-0.452 0.12185-0.88671 0.26181-1.3 0.41412-1.6474 0.60431-2.9647 1.3939-3.76 1.9323l-0.6076 0.14408" fill="#332e2e"/><path d="m58.592 21.878-9.2647 2.1949-2.572 0.60925c-0.30298 0.07163-0.61007-0.11691-0.68252-0.41989l-0.0362-0.15314c-0.0708-0.30298 0.11773-0.60925 0.42071-0.68088l11.838-2.8042c0.30298-0.07245 0.61007 0.11691 0.6817 0.41989l0.0362 0.15314c0.0716 0.30298-0.11773 0.61007-0.4207 0.68088" fill="#a94b01"/><path d="m45.193 7.2877c0.014-0.0107 0.10127-0.07575 0.24782-0.17536-0.0799 0.06587-0.1622 0.12432-0.24782 0.17536" fill="#3d3737"/><path d="m53.178 6.247c-2.4164-2.5029-6.6672 0.13255-7.7375 0.8653 0.6463-0.53515 1.0769-1.5486 1.3552-2.805 0.74345-3.3418 0.41083-8.3994 0.1976-10.728-0.0725-0.78132-0.13091-1.2555-0.13091-1.2555 1.5882 1.1032 2.2452-0.20418 2.2452-0.20418 7.9161 7.3184 4.0704 14.127 4.0704 14.127" fill="#3d3737"/><path d="m46.796 4.3073c0.34662-1.5569 0.45941-3.4859 0.45941-5.3375 0-2.1241-0.14819-4.1462-0.26181-5.3902 0.85706 0.53762 2.0179 1.491 2.544 2.9903 0.84389 2.3991-0.18854 5.4709-2.7416 7.7375" fill="#332e2e"/><path d="m46.243 23.894c0.0807-0.15314 0.15725-0.30956 0.22806-0.46929l0.6076-0.14408c-0.52198 0.35402-0.81837 0.59936-0.83566 0.61336" fill="#5b361a"/></g><g transform="matrix(1.1322 .33858 -.33858 1.1322 105.33 17.083)"><g transform="matrix(1.1521 -.034453 .034453 1.1521 -22.01 -2.6438)" style="mix-blend-mode:normal"><g stroke-width=".080225"><path d="m-18.026 25.415c-0.03995 0.82311-0.86306 0.43955-1.2306 0.1838-0.35162-0.24774-0.45552-0.03995-0.48745-0.51946-0.02399-0.31962-0.05592-0.63129-0.03995-0.95091 0.53542-0.04797 1.1108 0.0799 1.5503 0.39952 0.23169 0.15981 0.64725 0.68729 0.20778 0.88705m-16.406 10.117c-0.63129 0.39158-1.7901 1.5743-0.83907 2.1497 0.91103 0.83113 1.4224-0.91906 2.2216-1.1588-0.3436-0.47148-0.77513-0.90301-1.3825-0.99094zm11.3 1.3345c0.7432 0.11191 1.1588 0.78316 1.782 1.1268 0.5834 0.3436 0.80714-0.11191 0.85512-0.20778 0.08785-0.03995 0.0799 0.03995 0.22375-0.10389 0.54336-0.85512-0.55941-1.4784-1.1348-1.902-0.79912-0.15981-1.3026 0.53542-1.7261 1.0868zm-14.798-13.899c0.03995 0.82311 0.86306 0.43955 1.2306 0.1838 0.35162-0.24774 0.45552-0.03995 0.48745-0.51946 0.02407-0.31962 0.056-0.63129 0.03995-0.9509-0.53534-0.04797-1.1107 0.0799-1.5503 0.39952-0.22383 0.15981-0.64734 0.68729-0.20778 0.88705" fill="#f6d2a2"/><path d="m-35.758 15.274c-2.8529-1.0069-0.62335-4.9146 1.862-3.1885 1.6302-1.3985 3.8757-1.6542 6.2332-1.6542 2.3094 0.18396 4.507 0.60746 6.0413 1.9499 2.4774-1.5983 4.7629 2.2375 1.8541 3.2045 0.81508 3.1645-0.11183 6.393 0.01605 9.6134 0.11986 2.8929 0.87902 6.7686-0.72724 9.3658-1.3666 2.2216-4.3073 3.0128-6.7287 3.1007-3.0926 0.11183-6.8405-0.64734-8.3428-3.6441-1.4384-2.8529-1.0389-6.409-0.85512-9.4856 0.1838-3.1086-0.15981-6.2652 0.64734-9.262z" fill="#69d7e2"/><path d="m-38.109 22.47c0.0799-0.16783 0.23169-0.35965 0.37553-0.46354 0.36759-0.2637 0.83915-0.40754 1.3266-0.42351 0.01596-0.49547-0.01477 1.315-0.01477 0.62775v-0.62335c8e-3 -1.9658 0.03201-2.8289 0.14384-3.9078 0.08793-0.84702 0.22383-1.6302 0.41556-2.3654-0.64733-0.24773-1.0708-0.65528-1.2387-1.1828-0.15981-0.48745-0.0799-1.0388 0.19174-1.5263 0.27974-0.4795 0.72724-0.83915 1.2467-0.98292 0.55941-0.15186 1.1667-0.03995 1.7501 0.35155 0.51946-0.43947 1.1187-0.77513 1.7901-1.0309 1.1907-0.43939 2.5731-0.60722 4.4511-0.60722v0.0799l8e-3 -0.0799c2.0058 0.15981 3.4922 0.47148 4.7228 1.0708 0.49547 0.23971 0.93494 0.5274 1.3185 0.86306 0.59142-0.36759 1.2067-0.45552 1.7741-0.27966 0.5274 0.15981 0.98292 0.53542 1.2546 1.0229 0.27172 0.48745 0.33566 1.0469 0.15186 1.5264-0.1838 0.47942-0.6073 0.85504-1.2387 1.0868 0.19976 0.80706 0.30365 1.6622 0.31962 2.6051 0.01604 0.91898-0.02391 1.6542-0.16775 3.3163-0.10389 1.2387-0.14384 1.806-0.15989 2.4933 0.54344-0.02399 1.0868 0.11986 1.4944 0.41556 0.14384 0.10389 0.30365 0.28769 0.37553 0.46346 0.10389 0.22383 0.06394 0.42359-0.14384 0.54344-0.03193 0.38356-0.24773 0.55933-0.57537 0.5274-0.23971-0.02399-0.5274-0.15187-0.77513-0.32764-0.05234-0.03789-0.1086-0.07004-0.16783-0.09587-0.02399-8e-3 -0.03995-0.01604-0.06394-0.02407 0 0-0.04789-0.01589-0.06394-0.02391-0.02391-8e-3 -0.04789-0.01604-0.06386-0.03201 0.01597 0.37561 0.04789 0.76719 0.11986 1.6623 0.0799 1.0068 0.11986 1.5583 0.13582 2.1736 0.07196 2.2854-0.19976 3.9476-1.0148 5.2662-0.25576 0.41556-0.56743 0.78316-0.93502 1.1188 0.07196 0.04789 0.37561 0.27172 0.47148 0.3436 0.33566 0.25576 0.56735 0.47148 0.70325 0.71119 0.17577 0.31167 0.17577 0.62335-0.02399 0.95099l-0.016 0.016c-0.08785 0.08785-0.13582 0.11183-0.19976 0.11183h-0.02383c-8e-3 0.01605-0.01604 0.02399-0.02407 0.03995-0.02391 0.03995-0.04789 0.07188-0.07188 0.10389-0.19976 0.23177-0.47942 0.28769-0.85504 0.06394-0.19976-0.10389-0.3436-0.22383-0.64725-0.4795l-0.01605-0.01604c-0.48745-0.41548-0.72716-0.56727-1.0868-0.62327l-0.12788-0.02399c-0.04789 0.02407-0.09587 0.04003-0.15179 0.06394-1.1348 0.45552-2.4533 0.70325-3.7879 0.75123-1.7261 0.06394-3.3883-0.15187-4.7947-0.6633-0.37561-0.13582-0.72724-0.29571-1.0629-0.47148-0.20778 0.0799-0.38348 0.24773-0.71922 0.63931-0.01597 0.01604-0.01597 0.01604-0.02391 0.03193-0.01604 0.01605-0.01604 0.02407-0.02407 0.03201-0.01588 0.02399-0.03987 0.03995-0.05584 0.06394-0.26378 0.31159-0.43963 0.46346-0.63939 0.55139-0.26362 0.11183-0.51938 0.05592-0.78308-0.1838-0.46354-0.28769-0.49547-0.73518-0.19174-1.2467 0.21572-0.35957 0.59126-0.73518 0.94288-0.97489-0.41556-0.40754-0.77513-0.89499-1.0548-1.4465-0.76719-1.5343-1.0629-3.3244-1.0469-5.6258 8e-3 -0.81508 0.08673-3.8801 0.17458-5.2388v-0.03987c-0.03995 0.01596-0.0799 0.03995-0.11986 0.07188-0.24773 0.16783-0.53542 0.30365-0.77513 0.32764-0.32764 0.03201-0.54344-0.14384-0.57537-0.5274-0.19976-0.12788-0.23971-0.32764-0.13582-0.55139zm2.4944-10.68c-0.4795 0.12788-0.89507 0.46354-1.1507 0.91103-0.25576 0.4475-0.32764 0.95099-0.1838 1.3985 0.15178 0.47148 0.53542 0.8471 1.1348 1.0708 0.1195-0.42785 0.26086-0.84928 0.42351-1.2627-0.23177-0.19976-0.3436-0.4475-0.15981-0.79904 0.18372-0.35171 0.50341-0.39166 0.83113-0.28777 0.20778-0.27172 0.43947-0.51143 0.67918-0.73518-0.5274-0.33566-1.0708-0.43153-1.5743-0.29571zm17.037 2.7011c0.16783-0.43161 0.11191-0.94296-0.14384-1.3905-0.25568-0.44757-0.67124-0.79912-1.1667-0.94296-0.51143-0.15186-1.0628-0.07998-1.6063 0.23971 0.31425 0.28245 0.5933 0.60175 0.83113 0.95099 0.41556-0.2158 0.83907-0.25576 1.0788 0.18372 0.24773 0.47156-0.03995 0.76719-0.4475 0.99094 0.05592 0.1359 0.11191 0.27974 0.15981 0.42359 0.056 0.17577 0.11191 0.35957 0.15981 0.54336 0.5834-0.22375 0.96695-0.56735 1.1348-0.99888zm-0.96695 10.892c8e-3 0 0.056 0.01597 0.056 0.02391 0.02391 8e-3 0.04789 0.01605 0.07188 0.03201 0.06394 0.02399 0.12788 0.06394 0.19174 0.11183 0.22383 0.15989 0.49555 0.27974 0.70333 0.29571 0.23971 0.02399 0.37553-0.0799 0.39952-0.36759-0.16783-0.05592-0.23971-0.09587-0.30365-0.19174l0.12788-0.09595c0.0479 0.06394 0.09587 0.08793 0.23971 0.13582 8e-3 0 8e-3 0 0.01605 8e-3 0.1278-0.07196 0.15179-0.1838 0.07982-0.3436-0.06394-0.14384-0.20778-0.31167-0.32764-0.39952-0.38356-0.27974-0.89499-0.41556-1.4064-0.38364 0 0.19976-8e-3 0.39952 0 0.59126 0 0.02407 0 0.04003 8e-3 0.06402 0.0079 0.11183 0.0079 0.15981 0.01596 0.2158 0.02391 0.23169 0.03995 0.26362 0.1278 0.30365zm-2.4133 12.059 0.01604 0.01605c0.29563 0.25568 0.43947 0.35957 0.62327 0.46346 0.30365 0.1838 0.51143 0.14384 0.65528-0.03193 0.02399-0.02407 0.03995-0.056 0.05592-0.07998 8e-3 -8e-3 0.01605-0.02391 0.02399-0.03193v-8e-3c-0.01605-0.14384-0.07196-0.24774-0.2158-0.47148-8e-3 -8e-3 -8e-3 -8e-3 -8e-3 -0.01597-0.08785-0.12788-0.1278-0.19976-0.16775-0.28769l0.14384-0.06394c0.03193 0.07196 0.07188 0.1359 0.15187 0.2637 8e-3 8e-3 8e-3 8e-3 8e-3 0.01604 0.14376 0.20778 0.20778 0.33558 0.23971 0.47942h0.03199c0.01604-8e-3 0.03995-0.02399 0.07188-0.05592 0.31167-0.49547 0.06394-0.91898-0.63923-1.4465-0.08793-0.06386-0.38364-0.27164-0.46354-0.33558-0.01604 0-0.03193-8e-3 -0.04798-0.01604-0.43145 0.36767-0.93494 0.68729-1.4943 0.95098 0 8e-3 -8e-3 0.01604-0.01596 0.02407 0.32764 0.07982 0.5834 0.24765 1.0309 0.63121zm-13.417-0.871c-0.24773 0.41556-0.23971 0.75114 0.07196 0.98292 0.02391-0.04798 0.03995-0.10389 0.07188-0.1838 0-8e-3 0-8e-3 8e-3 -0.01604 0.11183-0.30365 0.18372-0.43145 0.31962-0.57529l0.11191 0.11183c-0.11986 0.11191-0.17585 0.23177-0.28769 0.51143 0 8e-3 0 8e-3 -8e-3 0.01605-0.03995 0.10381-0.06394 0.16775-0.08793 0.22375 0.20778 0.17577 0.39158 0.20778 0.5834 0.11986 0.16783-0.07196 0.32764-0.22383 0.5834-0.51143 0.01597-0.01604 0.03193-0.03995 0.04789-0.06394 8e-3 -8e-3 0.01604-0.01605 0.02407-0.03201 0.01588-0.01597 0.01588-0.01597 0.02391-0.03193 0.29571-0.3436 0.47148-0.5274 0.6633-0.63137-0.44758-0.25568-0.84718-0.54336-1.2067-0.87902-0.33558 0.24774-0.71119 0.61532-0.91898 0.95901zm-0.11183-2.5892c0.68721 1.3825 1.9019 2.3574 3.5321 2.9487 1.3905 0.50349 3.0367 0.71127 4.7388 0.64733 2.9328-0.10389 5.474-1.1268 6.6647-3.0607 0.79912-1.2866 1.0629-2.9248 0.99094-5.1784-0.02399-0.61532-0.05592-1.1667-0.13582-2.1736-0.08793-1.1348-0.11191-1.4624-0.1359-1.9739-0.01596-0.36759-0.01596-0.7432-8e-3 -1.1427 0.01604-0.70325 0.056-1.2627 0.15989-2.5173 0.14384-1.6622 0.1838-2.3894 0.16783-3.3005-0.02407-1.1986-0.1838-2.2535-0.51946-3.2523-0.5432-1.6224-1.5422-2.7172-2.9807-3.4283-1.2067-0.59126-2.6691-0.89499-4.6589-1.0549-1.862 0-3.2205 0.16783-4.3952 0.59936-1.4064 0.51946-2.4533 1.4304-3.1725 2.829-0.46354 1.1347-0.73526 2.3574-0.8791 3.7638-0.11183 1.0708-0.13582 1.9339-0.14384 3.8917v0.62335c-8e-3 0.96695 0.02279-0.70765-0.01724-0.02839-0.01597 0.2637-0.02391 0.37561-0.06386 1.0069-0.08793 1.3585-0.16664 4.4156-0.17458 5.2307-0.01604 2.2935 0.27172 4.0595 1.0309 5.5699zm-2.3986-11.104c8e-3 0 0.01596-8e-3 0.02391-8e-3 0.14384-0.04789 0.19182-0.0799 0.23979-0.13582l0.12788 0.09587c-0.07196 0.09595-0.14384 0.1359-0.30373 0.19174 0.03201 0.28777 0.16783 0.39166 0.39952 0.36767 0.20778-0.01605 0.47958-0.14384 0.70333-0.29571 0.06394-0.04789 0.1278-0.0799 0.19174-0.11183 8e-3 0 0.01604-8e-3 0.02407-8e-3 0.03193-0.43947 0.03193-0.55139 0.04789-0.78316l0.02399-0.43153c-0.44757 8e-3 -0.88705 0.14384-1.2226 0.39158-0.11994 0.08793-0.26378 0.25576-0.32772 0.39952-0.0799 0.1359-0.06394 0.25576 0.07196 0.32772z"/><path d="m-28.875 18.673c-8e-3 0.40754-0.08793 0.85504-0.01597 1.2866 0.11191 0.20778 0.31962 0.23185 0.50341 0.31167 0.25576-0.03995 0.47156-0.20778 0.57537-0.44749 0.06394-0.48745-0.01596-0.95099-0.03995-1.4384 0-0.01604-0.30365 8e-3 -0.57537 0.08793-0.23169 0.07188-0.4475 0.19174-0.4475 0.19976zm2.2615 0.03193c0.22383 0.84717-0.29571 2.2296-1.1507 1.0948 0.06394-0.4795-8e-3 -0.94296-0.03193-1.4144-8e-3 -0.03995 1.1747 0.2637 1.1827 0.31962z" fill="#fff"/><path d="m-28.971 19.049c0.01605-0.23979 0.02399-0.33566 0.02399-0.45552v-0.05592l0.05592-0.01604 1.0069-0.31159v-0.056l0.10389 0.02407h8e-3v0.0079l1.1347 0.28769 0.03995 8e-3 0.01604 0.03987c0.17577 0.42359 0.13582 1.0629-0.08793 1.4545-0.25576 0.44749-0.67124 0.45544-1.0948-0.056a0.81765 0.81765 0 0 1-0.59928 0.43161h-0.02407l-0.02391-8e-3c-0.03201-0.01604-0.06394-0.02407-0.11994-0.04798-8e-3 0-8e-3 0-0.01596-8e-3 -0.23169-0.0799-0.32764-0.14384-0.40754-0.29563l-8e-3 -8e-3v-0.01596c-0.02391-0.14384-0.03193-0.29571-0.03193-0.46346 0-0.11994 8e-3 -0.23185 0.02399-0.45552zm1.2786-0.29571c8e-3 0.14384 0.01596 0.19976 0.02391 0.27966 0.01605 0.29571 0.01605 0.51946-8e-3 0.7432 0.37569 0.4795 0.67132 0.4795 0.87108 0.11986 0.19182-0.33558 0.23185-0.90301 0.08793-1.2785l-1.0068-0.25576c0.0079 0.10389 0.01589 0.20778 0.03193 0.39158zm-1.1188 1.1828c0.05592 0.09587 0.12788 0.14384 0.3197 0.20778 8e-3 0 8e-3 0 0.01596 0.0079 0.0479 0.01604 0.0799 0.03193 0.10389 0.03995 0.2158-0.03995 0.39952-0.1838 0.48745-0.38356 0.02399-0.2158 0.02399-0.43955 8e-3 -0.73518-8e-3 -0.07998-8e-3 -0.1359-0.02407-0.27974-0.01589-0.18372-0.02391-0.29563-0.02391-0.39952l-0.87108 0.2637c0 0.10389-8e-3 0.19976-0.02399 0.40754-0.01597 0.2158-0.02391 0.32764-0.02391 0.45552 0 0.15178 8e-3 0.28769 0.03193 0.41556z"/></g><g transform="matrix(-.080225 0 0 .080225 -28.129 11.772)"><path d="m1.195 35.96c7.073 40.94 74.011 30.082 64.349-11.157-5.1602-31.212-41.81-9.2661-64.349 11.157" fill="#fff"/><path d="m66.44 24.604c-8.865-38.151-64.684 4.8598-66.24 11.455v0.1c-0.43243 16.294 20.52 29.186 39.545 25.998 8.665-1.494 16.435-5.677 21.515-11.853 5.578-6.874 7.57-15.739 5.18-25.7zm-6.673 24.504c-4.782 5.778-12.053 9.762-20.321 11.157-18.03 2.988-34.167-6.276-37.354-24.405 25.716-24.068 55.093-36.519 62.555-10.858 2.192 9.463 0.399 17.731-4.88 24.106z"/><ellipse cx="19.968" cy="40.399" rx="9.463" ry="10.459"/><ellipse cx="17.34" cy="39.673" rx="2.191" ry="2.689" fill="#fff"/></g><g transform="matrix(-.080225 0 0 .080225 -17.73 10.32)"><path d="m112.78 83.002c-7.87 0.697-14.245 9.961-10.16 17.332 5.378 9.762 17.431-0.896 24.902 0.1 8.666 0.2 15.739 9.164 22.612 1.594 7.67-8.368-3.287-16.536-11.954-20.122z" fill="#f6d2a2"/><path d="m151.14 89.676c-2.69-3.387-7.371-6.475-12.452-8.567l-0.199-0.1h-0.199l-25.5 0.997c-8.866 0.797-15.24 11.057-10.958 18.826 1.694 2.989 3.985 4.483 7.073 4.682 2.29 0.1 4.682-0.398 8.367-1.693 0.299-0.1 0.697-0.2 1.195-0.399 4.981-1.693 6.973-2.191 8.965-1.892h0.1c2.39 0 4.383 0.697 8.168 2.191 4.184 1.693 5.479 2.192 7.57 2.39 2.89 0.2 5.38-0.796 7.67-3.286 3.885-4.284 3.686-8.866 0.2-13.149zm-1.694 11.754c-1.892 2.092-3.785 2.79-6.076 2.69-1.793-0.1-2.988-0.598-6.973-2.192-3.984-1.693-6.175-2.29-8.765-2.39-2.49-0.3-4.582 0.199-9.862 1.992-0.498 0.199-0.896 0.299-1.195 0.398-7.272 2.49-10.758 2.291-13.149-2.092-3.586-6.474 1.893-15.24 9.364-15.937l25.201-0.997c4.782 1.993 9.065 4.881 11.555 7.97 2.988 3.585 3.088 7.171-0.1 10.558z" fill="#231f20"/><path d="m140.18 78.719c-3.088-11.356-28.987-9.662-28.39 3.885 1.295 10.06 31.378 7.37 28.39-3.885z"/></g><g transform="matrix(.080225 0 0 .080225 -27.054 11.772)"><path d="m1.195 35.96c7.073 40.94 74.011 30.082 64.349-11.157-5.1602-31.212-41.81-9.2661-64.349 11.157" fill="#fff"/><path d="m66.44 24.604c-8.865-38.151-64.684 4.8598-66.24 11.455v0.1c-0.43243 16.294 20.52 29.186 39.545 25.998 8.665-1.494 16.435-5.677 21.515-11.853 5.578-6.874 7.57-15.739 5.18-25.7zm-6.673 24.504c-4.782 5.778-12.053 9.762-20.321 11.157-18.03 2.988-34.167-6.276-37.354-24.405 25.716-24.068 55.093-36.519 62.555-10.858 2.192 9.463 0.399 17.731-4.88 24.106z"/><ellipse cx="48.793" cy="38.841" rx="9.463" ry="10.459"/><ellipse cx="53.602" cy="36.738" rx="2.191" ry="2.689" fill="#fff"/></g></g><g transform="matrix(.57628 -.035462 .035462 .57628 89.638 98.361)"><path d="m-251.82-167.79c0.0508 0.54341-0.0152 0.82547 0.25017 1.5945 0.38361 1.1133 0.78736 1.1363 1.2684 1.522 2.3958-0.82201 6.7692-1.9733 12.253-1.4368 5.9007 0.57679 10.208 2.8264 12.402 4.178 0.97858-0.0909 1.4034-0.21298 1.9664-0.67695 0.56182-0.46281 0.64817-0.98434 0.78171-1.636-2.0919-1.7419-6.811-4.2678-13.378-5.6597-7.006-1.4863-12.93 1.2986-15.544 2.1149" fill="#d20202"/><path d="m-212.83-174.3c-0.33733 0.63781-0.74373 1.3378-1.233 2.0758-0.57564 0.86806-1.2664 1.7879-2.0942 2.7136-2.397 2.6825-4.9413 4.3115-6.7453 5.2636-2.7677-1.5945-7.8528-4.0444-14.687-4.7041-6.0727-0.586-10.997 0.48469-13.942 1.3654-1.1101-0.76329-3.2071-2.4257-4.7392-5.3108-0.98998-1.8639-1.4184-3.6254-1.604-4.9678-0.0783-0.56528-0.11317-1.0557-0.12906-1.4472 0.28265 0.12319 0.78103 0.32811 1.4449 0.51117 1.3248 0.3661 3.313 0.65162 5.5785 0.0576 1.9858-0.51923 3.7617-1.6509 5.1522-3.151 1.3962-1.5059 1.8747-3.6046 3.2323-5.1347 1.843-2.0769 4.9976-3.0233 7.7072-2.9703 4.8851 0.099 9.0216 4.2263 9.3221 9.0755 0.0864 1.3769-0.12203 2.8908 0.723 4.0721 0.75064 1.0523 1.9883 1.6463 3.143 2.1414 3.4941 1.4967 7.0792 0.86345 8.8338 0.42021 0.0127-5e-3 0.0242-7e-3 0.0368-0.0104" fill="#565050"/><path d="m-241.96-162.01c-0.1788 0.0322-0.35782 0.0633-0.53673 0.0956 0.17338-0.0426 0.35229-0.0748 0.53673-0.0956" fill="#ffb9a9"/><path d="m-222.9-164.25c-1e-3 -1e-3 -1e-3 -1e-3 -2e-3 -1e-3 -2.7677-1.5945-7.8528-4.0433-14.685-4.703-1.2083-0.11628-2.3716-0.16809-3.4825-0.16809-4.4721 0-8.1007 0.82777-10.459 1.5335-0.0912-0.0622-0.18882-0.13125-0.29243-0.20608-1.1581-0.83813-3.0404-2.4568-4.4468-5.1048-0.98998-1.8639-1.4184-3.6254-1.604-4.9678-0.0783-0.56528-0.11317-1.0557-0.12906-1.4472 0.28264 0.12319 0.78103 0.32812 1.4448 0.51117 1.8048 1.9894 3.6391 3.4665 5.3289 4.5775 5.3072 3.4884 11.237 4.7099 16.942 4.7099 8.6387 0 16.761-2.8022 21.421-4.7766 0.0127-5e-3 0.0242-7e-3 0.0368-0.0104-0.33733 0.63781-0.74373 1.3378-1.233 2.0758-0.57564 0.86806-1.2664 1.7879-2.0942 2.7136-2.397 2.6825-4.9413 4.3115-6.7453 5.2636" fill="#4a4444"/><path d="m-212.83-174.3c-0.33733 0.63781-0.74373 1.3378-1.233 2.0758-2.0021 0.21184-4.3864 0.17269-6.8351-0.53879-1.5335-0.4467-3.8821-1.1639-5.5008-3.3019-0.55376-0.73107-0.88878-1.355-1.1329-2.0838-0.72415-2.161 0.52729-2.7619-1.5174-6.8651-1.1732-2.3532-4.353-3.554-7.0137-3.4101-0.26342 0.0138-3.0584 0.20493-5.2221 2.3636-1.5297 1.5277-1.2082 2.5052-2.3511 4.2874-2.0806 3.242-6.5762 5.3511-10.804 4.8883-0.71217-0.0771-1.9614-0.28782-3.4348-0.97974-0.0783-0.56528-0.11317-1.0557-0.12894-1.4472 0.84676 0.37071 3.6225 1.4598 7.0232 0.56873 1.986-0.51923 3.7617-1.6509 5.1522-3.151 1.3962-1.5059 1.8747-3.6046 3.2323-5.1347 1.843-2.0769 4.9977-3.0233 7.7073-2.9703 4.885 0.099 9.0215 4.2263 9.322 9.0755 0.0864 1.3769-0.12203 2.8908 0.723 4.0721 0.75064 1.0523 1.9883 1.6463 3.143 2.1414 3.5183 1.507 7.1299 0.85425 8.8706 0.40985" fill="#d6b350"/></g></g><g><path d="m14.881-2.2685-0.25851 1.8697-0.45283 3.2718s-2.9186 1.6993-5.8035 0.03869l-0.46105-2.6198-0.42071-2.3909s3.215-3.42 7.3966-0.1696" fill="#a94b01"/><path d="m14.18 2.9422c3e-3 0.37378-1.3016 0.68911-2.9153 0.70393-1.6129 0.01564-2.9244-0.27499-2.9277-0.64877-3e-3 -0.37378 1.3017-0.68911 2.9153-0.70475 1.6129-0.01482 2.9236 0.2758 2.9277 0.64959" fill="#d18b00"/><path d="m12.854 30.98-1.0514-27.892c-0.35402-0.14161-0.76238-0.13585-1.053 0.06504l0.75497 27.864 1.3494-0.03705" fill="#a94b01"/><path d="m59.485 27.355c-2.0204 10.056-8.3788 17.47-17.419 21.115-7.0829 2.8528-14.14 2.6165-20.303-0.10044-2.6091-1.151-4.4599-2.5358-5.7031-3.8827-1.4013-1.5034-2.4518-3.3517-2.847-5.3696-0.16548-0.84966-0.32768-1.9109-0.72287-2.6815-0.5582-1.1197-1.5947-1.8022-2.7885-2.1217-0.10621-0.02799-1.3272-0.205-1.328-0.20665-0.16878-0.94598-1.4103-7.9062-1.5692-8.7971 5.3252 1.1296 10.65 2.2583 15.975 3.3879 0.32521 0.51128 5.0732 7.7317 12.579 7.5654 1.0761-0.02305 5.4058-0.11938 8.4233-3.3904 1.0678-1.1568 1.6483-2.3629 1.9685-3.1944 0.15642-0.03375 8.7246-1.887 13.181-2.8511 0.2437 0.11938 0.43882 0.30462 0.55244 0.52692" fill="#d18b00"/><path d="m17.156 20.261c-3.1319-1.4326-6.3625-0.84224-8.4793-0.11938l-8.1e-4 -8.03e-4c-1.463 0.49975-2.395 1.0621-2.395 1.0621 3.3196-4.4689 1.4787-13.813 1.4787-13.813 0.62736 0.27993 1.2094 0.48822 1.7495 0.63724 3.8021 1.0481 5.489-0.81754 5.489-0.81754 5.8578 6.6861 2.1579 13.051 2.1579 13.051" fill="#3d3737"/><path d="m17.058 21.109-2.4214 0.19265-6.211 0.49481-1.8121 0.14408c-0.26676 0.02058-0.50304-0.1803-0.52445-0.44788l-0.0107-0.1342c-0.0214-0.26757 0.1803-0.50386 0.44705-0.52527l0.0123-0.0017 0.53762-0.04199 9.5306-0.75909 0.3639-0.02882c0.10374-0.0082 0.20336 0.01729 0.28651 0.06752 0.13173 0.07739 0.22476 0.21735 0.23794 0.38037l0.0107 0.1342c0.0214 0.26757-0.1803 0.50386-0.44705 0.52527" fill="#a94b01"/><path d="m16.059 7.1946c-2e-3 0.23135-0.19266 0.41742-0.42318 0.41495l-0.29969-0.0025-0.82825-0.0082-6.4078-0.06175-0.31286-0.0041-0.62242-0.0057c-0.23052-0.0017-0.41742-0.19266-0.41577-0.42236l2e-3 -0.1729c2e-3 -0.23135 0.19348-0.41824 0.424-0.41577l2.2056 0.0214 5.3902 0.0527 0.87518 0.0082c0.22971 0.0025 0.41742 0.19348 0.41495 0.42401l-2e-3 0.17207" fill="#a94b01"/><path d="m59.285 28.633c-0.0305 0.01317-0.0617 0.02634-0.093 0.04034-1.5783 0.68993-3.4777 1.384-5.6718 1.9265-2.9911 0.73933-5.666 0.9855-7.8116 1.0283-0.41001 1.0942-1.3502 3.1212-3.3953 4.7209-4.6418 3.6283-10.573 1.612-11.237 1.3741-5.7475-2.0591-7.6732-7.5588-7.9104-8.2743-3.1747-0.19018-13.682-0.88012-16.036-2.3151l-0.0165-0.0099c-0.38448-0.23876-1.2605-0.78214-1.1847-1.3774 0.0626-0.4874 0.73603-0.77968 1.0209-0.88752 5.736 0.77977 11.472 1.5603 17.209 2.3394 0.15071 0.02047 0.30142 0.04093 0.45213 0.0614 1.2547 4.7941 4.9802 8.3113 9.3083 8.8506 0.34991 0.04364 5.4157 0.59196 8.7501-3.0742 1.1823-1.2992 1.7421-2.6848 2.0196-3.5863 1.7742-0.15314 3.7296-0.4026 5.8282-0.8019 0.32273-0.06011 0.64794-0.12432 0.97727-0.19348 0.65535-0.13667 1.2934-0.28074 1.9134-0.43059 1.668-0.40507 3.2051-0.85706 4.6023-1.3222 0.33673-0.05764 0.65782-0.0033 0.92293 0.12597 0.2437 0.1202 0.43882 0.30544 0.55244 0.52774 0.028 0.05599 0.0519 0.11526 0.0692 0.17536 0.16301 0.55573-0.22724 1.0505-0.26922 1.1024" fill="#ffb217"/></g><g fill="#b2671b"><path d="m14.881-2.2685-0.25851 1.8697c-0.86448-0.56396-2.1801-1.1304-3.7683-0.87517-1.4383 0.23135-2.4255 1.0283-2.9491 1.5659l-0.42071-2.3909s3.215-3.42 7.3966-0.1696"/><path d="m49.743-8.6557c-0.41578 0.32191-1.0283 0.66194-1.8343 0.75251-0.81919 0.09139-1.5017-0.11444-1.9817-0.34332l3.816-0.40919"/><path d="m56.66 22.335-7.3324 1.7372c0.73439-0.51374 1.7553-1.0843 3.0545-1.4548 1.6968-0.48328 3.2076-0.43553 4.2779-0.28239"/><path d="m14.77 6.5903c-0.84554 0.42236-2.0854 0.81837-3.5386 0.58866-0.74592-0.11774-1.3667-0.37214-1.8516-0.64136l5.3902 0.0527"/><path d="m14.637 21.301-6.211 0.49481c0.80849-0.45776 2.0846-0.98385 3.6967-0.96903 0.99621 0.0091 1.8492 0.22229 2.5144 0.47422"/></g><g><path d="m6.5379 20.831c1.3642-2.1134 1.7314-5.1276 1.7306-7.7654-8.1e-4 -2.6667-0.3779-4.9506-0.48246-5.5326h8e-4l0.31286 0.0041h8.1e-4c0.49892 0.20747 0.96821 0.36802 1.4087 0.48987 0.56891 1.0497 1.0431 2.3522 1.2695 3.5015 0.57796 2.9227-0.21159 6.0118-2.1019 8.6126l-8e-4 -8.03e-4c-0.65041 0.22229-1.1954 0.45694-1.6005 0.64876l-0.53762 0.04199" fill="#332e2e"/><path d="m6.281 21.202c0.0889-0.1202 0.17454-0.24452 0.25687-0.37131l0.53762-0.04199c-0.50715 0.23958-0.79449 0.4133-0.79449 0.4133" fill="#5b361a"/><path d="m8.1005 7.5371h-8e-4l-0.31286-0.0041h-8e-4c-0.0165-0.09303-0.0263-0.14326-0.0263-0.14326 0.11527 0.05187 0.22888 0.10045 0.34085 0.14738" fill="#5b361a"/></g><g fill="#783607"><path d="m11.738 0.35458c-0.0115 0.66853-0.24535 1.207-0.52445 1.2029-0.27827-0.0049-0.4948-0.55079-0.4841-1.2193 0.0115-0.66852 0.24617-1.2061 0.52445-1.202 0.27827 0.0049 0.4948 0.54997 0.4841 1.2185"/><path d="m13.797 0.6732c-0.12844 0.53597-0.4133 0.92787-0.63642 0.87435-0.22312-0.05352-0.30051-0.53186-0.17207-1.0678 0.12843-0.53597 0.4133-0.92787 0.63642-0.87435 0.22311 0.05351 0.3005 0.53186 0.17207 1.0678"/><path d="m8.7279 0.97783c0.19184 0.51704 0.52116 0.87106 0.73686 0.79203 0.21489-0.07986 0.23465-0.56396 0.0428-1.081-0.19183-0.51704-0.52198-0.87106-0.73687-0.7912-0.2157 0.07986-0.23464 0.56314-0.0428 1.0802"/></g><g fill="#8c4905"><path d="m20.709 33.185h-0.0206c-0.66935-0.01153-1.202-0.56232-1.1913-1.2317 0.0107-0.66276 0.5508-1.1922 1.2111-1.1922 7e-3 0 0.0132 0 0.0198 8.03e-4 0.66935 0.0107 1.2028 0.5615 1.1922 1.2308-0.0107 0.66276-0.55161 1.1922-1.2111 1.1922"/><path d="m53.793 33.93h-0.0198c-0.66935-0.0107-1.2028-0.56232-1.1922-1.2308 0.0107-0.66276 0.55162-1.1922 1.2111-1.1922h0.0206c0.66935 0.01153 1.2028 0.56232 1.1913 1.2317-0.0107 0.66194-0.55079 1.1913-1.2111 1.1913"/><path d="m15.824 32.825c-7e-3 0-0.0132 0-0.0198-8.03e-4 -0.66935-0.01071-1.2028-0.5615-1.1922-1.2309 0.0107-0.66194 0.55162-1.1921 1.2111-1.1921 7e-3 0 0.014 0 0.0206 8.03e-4 0.66853 0.0107 1.202 0.56149 1.1913 1.2308-0.0107 0.66277-0.55079 1.1922-1.2111 1.1922"/><path d="m48.644 34.65c-7e-3 0-0.014 0-0.0206-8.03e-4 -0.66935-0.01071-1.2028-0.56232-1.1913-1.2309 0.0107-0.66276 0.55079-1.1921 1.2111-1.1921h0.0198c0.66935 0.01152 1.2028 0.56232 1.1922 1.2317-0.0107 0.66194-0.55162 1.1922-1.2111 1.1922"/><path d="m10.879 32.015h-0.0206c-0.66935-0.0107-1.2029-0.56232-1.1913-1.2308 0.0107-0.66277 0.55079-1.1922 1.2111-1.1922h0.0198c0.66935 0.01153 1.2028 0.56232 1.1922 1.2317-0.0107 0.66194-0.55162 1.1913-1.2111 1.1913"/></g><path d="m55.358 37.671c-5.0625 2.2015-12.835 4.5932-22.413 4.1594-9.0844-0.4133-16.143-3.201-20.454-5.3943 0.0173 0.03293 0.0329 0.06587 0.0486 0.0988 0.15726 0.33756 0.27087 0.69652 0.3639 1.0695 4.2269 2.1908 11.076 4.9357 19.88 5.3655 9.1264 0.44459 16.608-1.7825 21.656-3.9642l0.91963-1.3346" fill="#b2671b"/><path d="m50.695 43.127c-0.43882 0.39354-0.88999 0.77309-1.3535 1.137l-8e-4 8.03e-4c-4.422 1.1946-10.106 2.1266-16.715 1.845-8.0124-0.34085-14.303-2.3333-18.294-3.9815-0.16714-0.29886-0.31945-0.60596-0.45694-0.91799 4.0696 1.6573 10.582 3.7032 18.899 4.035 7.2188 0.28815 13.338-0.81508 17.921-2.1184" fill="#b2671b"/><g transform="translate(5.5,12)"><path d="m34.262-17.639s-2.4922 1.3198-4.8328-0.43306c-0.68911-0.51622-1.4367-0.67512-2.1472-0.64301-1.6754 0.07493-3.1516 1.2119-3.1986 1.2498 0.084-0.11279 4.2145-5.6347-0.27992-5.9245 0 0 0.6924-0.64218 1.9891-0.98303 1.1543-0.30298 2.7894-0.36802 4.841 0.4734 0 0 0.93693 1.2753 2.9153 0.55244 0 0 1.71 3.3039 0.71299 5.708" fill="#3d3737"/><path d="m24.084-17.466c0.0543-0.07327 1.8105-2.4205 1.8129-4.1412 8e-4 -0.90646-0.48493-1.6392-1.962-1.7734-0.0428-0.0033-0.0864-0.0074-0.1309-0.0099 0 0 0.6924-0.64218 1.9891-0.98303 0.64053 0.45035 1.3741 1.1707 1.7347 2.255 0.36637 1.1016 0.26099 2.3151-0.24535 3.4027-1.6754 0.07493-3.1516 1.2119-3.1986 1.2498" fill="#332e2e"/></g><path d="m31.894 50.513c-0.53104 0-1.0629-0.01729-1.5939-0.05269 0.52363 0.03376 1.0505 0.05022 1.5791 0.05022 1.0917 0 2.1941-0.0708 3.3039-0.21488-0.9254 0.12103-1.8574 0.19265-2.791 0.21241-0.16548 0.0033-0.33179 0.0049-0.4981 0.0049m10.136-2.0278c0-8.03e-4 2e-3 -8.03e-4 2e-3 -0.0017-8e-4 8.03e-4 -8e-4 8.03e-4 -2e-3 0.0017m0.0683-0.02799c2e-3 -8.03e-4 3e-3 -0.0017 5e-3 -0.0025-2e-3 8.03e-4 -3e-3 0.0017-5e-3 0.0025m-20.355-0.09633c-2e-3 -8.03e-4 -3e-3 -0.0017-5e-3 -0.0025 2e-3 8.02e-4 3e-3 0.0017 5e-3 0.0025m-0.0222-0.0107c-3e-3 -8.03e-4 -7e-3 -0.0025-0.01-0.0041 3e-3 0.0017 7e-3 0.0033 0.01 0.0041m-0.0214-0.0091c-3e-3 -0.0017-7e-3 -0.0033-0.0107-0.0049 3e-3 0.0017 7e-3 0.0033 0.0107 0.0049m-0.014-0.0066c-1.1395-0.50716-2.2443-1.1073-3.2669-1.8195 0.92128 0.64053 2.0048 1.2572 3.2669 1.8195" fill="#dab692"/><path d="m31.879 50.511c-0.52857 0-1.0555-0.01646-1.5791-0.05022-2.9359-0.19183-5.8554-0.90893-8.5369-2.0904-7e-3 -0.0033-0.0132-0.0066-0.0206-0.0091-2e-3 -8.03e-4 -3e-3 -0.0017-5e-3 -0.0025-6e-3 -0.0025-0.0115-0.0057-0.0173-0.0082-3e-3 -8.03e-4 -7e-3 -0.0025-0.01-0.0041-4e-3 -0.0017-7e-3 -0.0033-0.0115-0.0049-3e-3 -0.0017-7e-3 -0.0033-0.0107-0.0049-2e-3 -8.03e-4 -2e-3 -8.03e-4 -3e-3 -0.0017-1.2621-0.56232-2.3456-1.179-3.2669-1.8195-0.74427-0.51868-1.4457-1.0975-2.0854-1.7429-0.0922-0.09304-0.18278-0.18772-0.27252-0.28486 3.3599 1.7528 8.8234 3.9733 15.849 4.3495 0.70146 0.03705 1.3881 0.05516 2.0599 0.05516 4.0087 0 7.4814-0.62736 10.232-1.3807-0.68664 0.34085-1.3873 0.65618-2.0978 0.94351-2e-3 8.03e-4 -3e-3 0.0017-5e-3 0.0025-0.0107 0.0041-0.0214 0.0082-0.0321 0.01317-0.0115 0.0041-0.023 0.0091-0.0346 0.01318 0 8.02e-4 -2e-3 8.02e-4 -2e-3 0.0017-2.195 0.88012-4.5002 1.5034-6.8466 1.8105-1.1098 0.14408-2.2122 0.21488-3.3039 0.21488" fill="#c27a0d"/><g transform="matrix(.11563 0 0 .11563 49.863 63.658)" fill-rule="evenodd"><path transform="matrix(1.3333 0 0 -1.3333 348.61 -130.25)" d="m0 0h-702.33v42.617c19.142-11.073 44.833-10.179 56.734 4.209 13.597 16.438 35.927 13.417 50.444-0.859 5.192-5.106 31.215-15.338 41.13-5.205 11.305 11.552 37.298 21.456 52.772 6.122 42.961-42.573 80.267 44.172 111.04 0.949 12.508-17.568 37.114-6.706 49.934 3.061 42.052 32.037 53.615-10.508 81.219-10.508 36.229 2.199 33.554 20.414 52.576 21.558 10.671 0.642 25.192-21.558 61.504-21.558 32.46 0 22.104 19.227 48.499 21.227 25.155 1.906 50.135-39.503 82.078-15.924 3.833 2.829 8.851 5.584 14.396 7.632z" clip-path="url(#clipPath28)" fill="#009fd7"/><path transform="matrix(1.3333 0 0 -1.3333 -587.83 -99.209)" d="m0 0h702.33v46.101c-16.871-6.327-35.446-2.857-45.047 11.394-13.596 20.184-35.926 16.474-50.443-1.055-5.192-6.269-31.215-18.832-41.131-6.391-11.304 14.184-37.298 26.344-52.771 7.517-42.962-52.273-80.268 54.237-111.04 1.165-12.508-21.57-37.114-8.233-49.933 3.758-42.053 39.338-53.616-12.902-81.219-12.902-36.23 2.701-33.554 25.066-52.577 26.471-10.671 0.787-25.191-26.471-61.504-26.471-32.459 0-22.103 23.609-48.499 26.065-25.154 2.339-50.134-48.505-82.077-19.553-6.407 5.807-16.123 11.36-26.084 13.025z" clip-path="url(#clipPath30)" fill="#00adee"/><path transform="matrix(1.3333 0 0 -1.3333 -587.83 -107.05)" d="m0 0h702.33v48.76c-13.265 9.535-17.419 13.749-40.244-3.192-19.595-14.542-49.65-15.022-62.869 0.556-13.739 16.192-36.302 13.217-50.971-0.846-5.246-5.029-31.541-15.108-41.561-5.127-11.423 11.379-37.688 21.134-53.324 6.03-43.411-41.935-81.107 43.51-112.2 0.935-12.639-17.304-37.503-6.605-50.456 3.015-42.493 31.557-54.177-10.351-82.07-10.351-36.608 2.167-33.904 20.109-53.126 21.236-10.783 0.632-25.455-21.236-62.148-21.236-32.799 0-22.335 18.94-49.006 20.91-14.402 1.064-28.748-11.568-44.349-18.494z" clip-path="url(#clipPath32)" fill="#21b9ec" d="m0 0h-702.33v38.974c19.204-10.389 45.328-9.705 57.359 3.484 13.597 14.904 35.927 12.165 50.444-0.779 5.192-4.63 31.214-13.907 41.13-4.72 11.305 10.474 37.298 19.454 52.772 5.551 42.961-38.601 80.267 40.052 111.04 0.861 12.508-15.929 37.114-6.08 49.933 2.775 42.053 29.049 53.616-9.528 81.22-9.528 36.229 1.995 33.554 18.51 52.576 19.547 10.671 0.582 25.192-19.547 61.504-19.547 32.46 0 22.104 17.434 48.499 19.247 25.155 1.728 50.135-35.818 82.077-14.439 3.689 2.469 8.475 4.875 13.772 6.708z" clip-path="url(#clipPath34)" fill="#44c7f4"/></g></g></g></svg>
